<svg xmlns="http://www.w3.org/2000/svg" width="120" height="120" viewbox="0 0 120 120" preserveAspectRatio="none"><rect x="0" y="0" width="100%" height="100%" fill="rgb(147, 60, 92)" /><polyline points="0, 0, 15, 15, 0, 15, 0, 0" stroke="#000" stroke-opacity="0.02" fill-opacity="0.02" fill="#ddd" transform="translate(0, 15) scale(1, -1)" /><polyline points="0, 0, 15, 15, 0, 15, 0, 0" stroke="#000" stroke-opacity="0.02" fill-opacity="0.02" fill="#ddd" transform="translate(30, 15) scale(-1, -1)" /><polyline points="0, 0, 15, 15, 0, 15, 0, 0" stroke="#000" stroke-opacity="0.02" fill-opacity="0.02" fill="#ddd" transform="translate(0, 15) scale(1, 1)" /><polyline points="0, 0, 15, 15, 0, 15, 0, 0" stroke="#000" stroke-opacity="0.02" fill-opacity="0.02" fill="#ddd" transform="translate(30, 15) scale(-1, 1)" /><polyline points="0, 0, 15, 15, 0, 15, 0, 0" stroke="#000" stroke-opacity="0.02" fill-opacity="0.14133333333333" fill="#ddd" transform="translate(45, 0) scale(-1, 1)" /><polyline points="0, 0, 15, 15, 0, 15, 0, 0" stroke="#000" stroke-opacity="0.02" fill-opacity="0.14133333333333" fill="#ddd" transform="translate(45, 30) scale(1, -1)" /><polyline points="0, 0, 15, 15, 0, 15, 0, 0" stroke="#000" stroke-opacity="0.02" fill-opacity="0.098" fill="#222" transform="translate(45, 30) scale(-1, -1)" /><polyline points="0, 0, 15, 15, 0, 15, 0, 0" stroke="#000" stroke-opacity="0.02" fill-opacity="0.098" fill="#222" transform="translate(45, 0) scale(1, 1)" /><polyline points="0, 0, 15, 15, 0, 15, 0, 0" stroke="#000" stroke-opacity="0.02" fill-opacity="0.098" fill="#222" transform="translate(60, 15) scale(1, -1)" /><polyline points="0, 0, 15, 15, 0, 15, 0, 0" stroke="#000" stroke-opacity="0.02" fill-opacity="0.098" fill="#222" transform="translate(90, 15) scale(-1, -1)" /><polyline points="0, 0, 15, 15, 0, 15, 0, 0" stroke="#000" stroke-opacity="0.02" fill-opacity="0.098" fill="#222" transform="translate(60, 15) scale(1, 1)" /><polyline points="0, 0, 15, 15, 0, 15, 0, 0" stroke="#000" stroke-opacity="0.02" fill-opacity="0.098" fill="#222" transform="translate(90, 15) scale(-1, 1)" /><polyline points="0, 0, 15, 15, 0, 15, 0, 0" stroke="#000" stroke-opacity="0.02" fill-opacity="0.089333333333333" fill="#ddd" transform="translate(105, 0) scale(-1, 1)" /><polyline points="0, 0, 15, 15, 0, 15, 0, 0" stroke="#000" stroke-opacity="0.02" fill-opacity="0.089333333333333" fill="#ddd" transform="translate(105, 30) scale(1, -1)" /><polyline points="0, 0, 15, 15, 0, 15, 0, 0" stroke="#000" stroke-opacity="0.02" fill-opacity="0.14133333333333" fill="#ddd" transform="translate(105, 30) scale(-1, -1)" /><polyline points="0, 0, 15, 15, 0, 15, 0, 0" stroke="#000" stroke-opacity="0.02" fill-opacity="0.14133333333333" fill="#ddd" transform="translate(105, 0) scale(1, 1)" /><polyline points="0, 0, 15, 15, 0, 15, 0, 0" stroke="#000" stroke-opacity="0.02" fill-opacity="0.14133333333333" fill="#ddd" transform="translate(15, 30) scale(-1, 1)" /><polyline points="0, 0, 15, 15, 0, 15, 0, 0" stroke="#000" stroke-opacity="0.02" fill-opacity="0.14133333333333" fill="#ddd" transform="translate(15, 60) scale(1, -1)" /><polyline points="0, 0, 15, 15, 0, 15, 0, 0" stroke="#000" stroke-opacity="0.02" fill-opacity="0.124" fill="#ddd" transform="translate(15, 60) scale(-1, -1)" /><polyline points="0, 0, 15, 15, 0, 15, 0, 0" stroke="#000" stroke-opacity="0.02" fill-opacity="0.124" fill="#ddd" transform="translate(15, 30) scale(1, 1)" /><polyline points="0, 0, 15, 15, 0, 15, 0, 0" stroke="#000" stroke-opacity="0.02" fill-opacity="0.124" fill="#ddd" transform="translate(30, 45) scale(1, -1)" /><polyline points="0, 0, 15, 15, 0, 15, 0, 0" stroke="#000" stroke-opacity="0.02" fill-opacity="0.124" fill="#ddd" transform="translate(60, 45) scale(-1, -1)" /><polyline points="0, 0, 15, 15, 0, 15, 0, 0" stroke="#000" stroke-opacity="0.02" fill-opacity="0.124" fill="#ddd" transform="translate(30, 45) scale(1, 1)" /><polyline points="0, 0, 15, 15, 0, 15, 0, 0" stroke="#000" stroke-opacity="0.02" fill-opacity="0.124" fill="#ddd" transform="translate(60, 45) scale(-1, 1)" /><polyline points="0, 0, 15, 15, 0, 15, 0, 0" stroke="#000" stroke-opacity="0.02" fill-opacity="0.02" fill="#ddd" transform="translate(75, 30) scale(-1, 1)" /><polyline points="0, 0, 15, 15, 0, 15, 0, 0" stroke="#000" stroke-opacity="0.02" fill-opacity="0.02" fill="#ddd" transform="translate(75, 60) scale(1, -1)" /><polyline points="0, 0, 15, 15, 0, 15, 0, 0" stroke="#000" stroke-opacity="0.02" fill-opacity="0.098" fill="#222" transform="translate(75, 60) scale(-1, -1)" /><polyline points="0, 0, 15, 15, 0, 15, 0, 0" stroke="#000" stroke-opacity="0.02" fill-opacity="0.098" fill="#222" transform="translate(75, 30) scale(1, 1)" /><polyline points="0, 0, 15, 15, 0, 15, 0, 0" stroke="#000" stroke-opacity="0.02" fill-opacity="0.098" fill="#222" transform="translate(90, 45) scale(1, -1)" /><polyline points="0, 0, 15, 15, 0, 15, 0, 0" stroke="#000" stroke-opacity="0.02" fill-opacity="0.098" fill="#222" transform="translate(120, 45) scale(-1, -1)" /><polyline points="0, 0, 15, 15, 0, 15, 0, 0" stroke="#000" stroke-opacity="0.02" fill-opacity="0.098" fill="#222" transform="translate(90, 45) scale(1, 1)" /><polyline points="0, 0, 15, 15, 0, 15, 0, 0" stroke="#000" stroke-opacity="0.02" fill-opacity="0.098" fill="#222" transform="translate(120, 45) scale(-1, 1)" /><polyline points="0, 0, 15, 15, 0, 15, 0, 0" stroke="#000" stroke-opacity="0.02" fill-opacity="0.046" fill="#222" transform="translate(0, 75) scale(1, -1)" /><polyline points="0, 0, 15, 15, 0, 15, 0, 0" stroke="#000" stroke-opacity="0.02" fill-opacity="0.046" fill="#222" transform="translate(30, 75) scale(-1, -1)" /><polyline points="0, 0, 15, 15, 0, 15, 0, 0" stroke="#000" stroke-opacity="0.02" fill-opacity="0.046" fill="#222" transform="translate(0, 75) scale(1, 1)" /><polyline points="0, 0, 15, 15, 0, 15, 0, 0" stroke="#000" stroke-opacity="0.02" fill-opacity="0.046" fill="#222" transform="translate(30, 75) scale(-1, 1)" /><polyline points="0, 0, 15, 15, 0, 15, 0, 0" stroke="#000" stroke-opacity="0.02" fill-opacity="0.072" fill="#ddd" transform="translate(45, 60) scale(-1, 1)" /><polyline points="0, 0, 15, 15, 0, 15, 0, 0" stroke="#000" stroke-opacity="0.02" fill-opacity="0.072" fill="#ddd" transform="translate(45, 90) scale(1, -1)" /><polyline points="0, 0, 15, 15, 0, 15, 0, 0" stroke="#000" stroke-opacity="0.02" fill-opacity="0.14133333333333" fill="#ddd" transform="translate(45, 90) scale(-1, -1)" /><polyline points="0, 0, 15, 15, 0, 15, 0, 0" stroke="#000" stroke-opacity="0.02" fill-opacity="0.14133333333333" fill="#ddd" transform="translate(45, 60) scale(1, 1)" /><polyline points="0, 0, 15, 15, 0, 15, 0, 0" stroke="#000" stroke-opacity="0.02" fill-opacity="0.14133333333333" fill="#ddd" transform="translate(60, 75) scale(1, -1)" /><polyline points="0, 0, 15, 15, 0, 15, 0, 0" stroke="#000" stroke-opacity="0.02" fill-opacity="0.14133333333333" fill="#ddd" transform="translate(90, 75) scale(-1, -1)" /><polyline points="0, 0, 15, 15, 0, 15, 0, 0" stroke="#000" stroke-opacity="0.02" fill-opacity="0.14133333333333" fill="#ddd" transform="translate(60, 75) scale(1, 1)" /><polyline points="0, 0, 15, 15, 0, 15, 0, 0" stroke="#000" stroke-opacity="0.02" fill-opacity="0.14133333333333" fill="#ddd" transform="translate(90, 75) scale(-1, 1)" /><polyline points="0, 0, 15, 15, 0, 15, 0, 0" stroke="#000" stroke-opacity="0.02" fill-opacity="0.046" fill="#222" transform="translate(105, 60) scale(-1, 1)" /><polyline points="0, 0, 15, 15, 0, 15, 0, 0" stroke="#000" stroke-opacity="0.02" fill-opacity="0.046" fill="#222" transform="translate(105, 90) scale(1, -1)" /><polyline points="0, 0, 15, 15, 0, 15, 0, 0" stroke="#000" stroke-opacity="0.02" fill-opacity="0.14133333333333" fill="#ddd" transform="translate(105, 90) scale(-1, -1)" /><polyline points="0, 0, 15, 15, 0, 15, 0, 0" stroke="#000" stroke-opacity="0.02" fill-opacity="0.14133333333333" fill="#ddd" transform="translate(105, 60) scale(1, 1)" /><polyline points="0, 0, 15, 15, 0, 15, 0, 0" stroke="#000" stroke-opacity="0.02" fill-opacity="0.14133333333333" fill="#ddd" transform="translate(15, 90) scale(-1, 1)" /><polyline points="0, 0, 15, 15, 0, 15, 0, 0" stroke="#000" stroke-opacity="0.02" fill-opacity="0.14133333333333" fill="#ddd" transform="translate(15, 120) scale(1, -1)" /><polyline points="0, 0, 15, 15, 0, 15, 0, 0" stroke="#000" stroke-opacity="0.02" fill-opacity="0.124" fill="#ddd" transform="translate(15, 120) scale(-1, -1)" /><polyline points="0, 0, 15, 15, 0, 15, 0, 0" stroke="#000" stroke-opacity="0.02" fill-opacity="0.124" fill="#ddd" transform="translate(15, 90) scale(1, 1)" /><polyline points="0, 0, 15, 15, 0, 15, 0, 0" stroke="#000" stroke-opacity="0.02" fill-opacity="0.124" fill="#ddd" transform="translate(30, 105) scale(1, -1)" /><polyline points="0, 0, 15, 15, 0, 15, 0, 0" stroke="#000" stroke-opacity="0.02" fill-opacity="0.124" fill="#ddd" transform="translate(60, 105) scale(-1, -1)" /><polyline points="0, 0, 15, 15, 0, 15, 0, 0" stroke="#000" stroke-opacity="0.02" fill-opacity="0.124" fill="#ddd" transform="translate(30, 105) scale(1, 1)" /><polyline points="0, 0, 15, 15, 0, 15, 0, 0" stroke="#000" stroke-opacity="0.02" fill-opacity="0.124" fill="#ddd" transform="translate(60, 105) scale(-1, 1)" /><polyline points="0, 0, 15, 15, 0, 15, 0, 0" stroke="#000" stroke-opacity="0.02" fill-opacity="0.028666666666667" fill="#222" transform="translate(75, 90) scale(-1, 1)" /><polyline points="0, 0, 15, 15, 0, 15, 0, 0" stroke="#000" stroke-opacity="0.02" fill-opacity="0.028666666666667" fill="#222" transform="translate(75, 120) scale(1, -1)" /><polyline points="0, 0, 15, 15, 0, 15, 0, 0" stroke="#000" stroke-opacity="0.02" fill-opacity="0.02" fill="#ddd" transform="translate(75, 120) scale(-1, -1)" /><polyline points="0, 0, 15, 15, 0, 15, 0, 0" stroke="#000" stroke-opacity="0.02" fill-opacity="0.02" fill="#ddd" transform="translate(75, 90) scale(1, 1)" /><polyline points="0, 0, 15, 15, 0, 15, 0, 0" stroke="#000" stroke-opacity="0.02" fill-opacity="0.02" fill="#ddd" transform="translate(90, 105) scale(1, -1)" /><polyline points="0, 0, 15, 15, 0, 15, 0, 0" stroke="#000" stroke-opacity="0.02" fill-opacity="0.02" fill="#ddd" transform="translate(120, 105) scale(-1, -1)" /><polyline points="0, 0, 15, 15, 0, 15, 0, 0" stroke="#000" stroke-opacity="0.02" fill-opacity="0.02" fill="#ddd" transform="translate(90, 105) scale(1, 1)" /><polyline points="0, 0, 15, 15, 0, 15, 0, 0" stroke="#000" stroke-opacity="0.02" fill-opacity="0.02" fill="#ddd" transform="translate(120, 105) scale(-1, 1)" /></svg>