<svg xmlns="http://www.w3.org/2000/svg" width="489" height="489" viewbox="0 0 489 489" preserveAspectRatio="none"><rect x="0" y="0" width="100%" height="100%" fill="rgb(75, 137, 69)" /><rect x="0" y="14" width="100%" height="18" opacity="0.13266666666667" fill="#222" /><rect x="0" y="40" width="100%" height="14" opacity="0.098" fill="#222" /><rect x="0" y="69" width="100%" height="5" opacity="0.02" fill="#ddd" /><rect x="0" y="84" width="100%" height="19" opacity="0.14133333333333" fill="#ddd" /><rect x="0" y="111" width="100%" height="11" opacity="0.072" fill="#ddd" /><rect x="0" y="137" width="100%" height="8" opacity="0.046" fill="#222" /><rect x="0" y="157" width="100%" height="7" opacity="0.037333333333333" fill="#ddd" /><rect x="0" y="179" width="100%" height="19" opacity="0.14133333333333" fill="#ddd" /><rect x="0" y="218" width="100%" height="14" opacity="0.098" fill="#222" /><rect x="0" y="238" width="100%" height="14" opacity="0.098" fill="#222" /><rect x="0" y="264" width="100%" height="9" opacity="0.054666666666667" fill="#ddd" /><rect x="0" y="292" width="100%" height="9" opacity="0.054666666666667" fill="#ddd" /><rect x="0" y="307" width="100%" height="12" opacity="0.080666666666667" fill="#222" /><rect x="0" y="336" width="100%" height="7" opacity="0.037333333333333" fill="#ddd" /><rect x="0" y="350" width="100%" height="20" opacity="0.15" fill="#222" /><rect x="0" y="387" width="100%" height="11" opacity="0.072" fill="#ddd" /><rect x="0" y="418" width="100%" height="14" opacity="0.098" fill="#222" /><rect x="0" y="444" width="100%" height="12" opacity="0.080666666666667" fill="#222" /><rect x="0" y="476" width="100%" height="13" opacity="0.089333333333333" fill="#ddd" /><rect x="14" y="0" width="18" height="100%" opacity="0.13266666666667" fill="#222" /><rect x="40" y="0" width="14" height="100%" opacity="0.098" fill="#222" /><rect x="69" y="0" width="5" height="100%" opacity="0.02" fill="#ddd" /><rect x="84" y="0" width="19" height="100%" opacity="0.14133333333333" fill="#ddd" /><rect x="111" y="0" width="11" height="100%" opacity="0.072" fill="#ddd" /><rect x="137" y="0" width="8" height="100%" opacity="0.046" fill="#222" /><rect x="157" y="0" width="7" height="100%" opacity="0.037333333333333" fill="#ddd" /><rect x="179" y="0" width="19" height="100%" opacity="0.14133333333333" fill="#ddd" /><rect x="218" y="0" width="14" height="100%" opacity="0.098" fill="#222" /><rect x="238" y="0" width="14" height="100%" opacity="0.098" fill="#222" /><rect x="264" y="0" width="9" height="100%" opacity="0.054666666666667" fill="#ddd" /><rect x="292" y="0" width="9" height="100%" opacity="0.054666666666667" fill="#ddd" /><rect x="307" y="0" width="12" height="100%" opacity="0.080666666666667" fill="#222" /><rect x="336" y="0" width="7" height="100%" opacity="0.037333333333333" fill="#ddd" /><rect x="350" y="0" width="20" height="100%" opacity="0.15" fill="#222" /><rect x="387" y="0" width="11" height="100%" opacity="0.072" fill="#ddd" /><rect x="418" y="0" width="14" height="100%" opacity="0.098" fill="#222" /><rect x="444" y="0" width="12" height="100%" opacity="0.080666666666667" fill="#222" /><rect x="476" y="0" width="13" height="100%" opacity="0.089333333333333" fill="#ddd" /></svg>